<?xml version="1.0" encoding="UTF-8"?>
<svg width="396px" height="130px" viewBox="0 0 396 130" version="1.1" xmlns="http://www.w3.org/2000/svg" xmlns:xlink="http://www.w3.org/1999/xlink">
    <!-- Generator: Sketch 52.1 (67048) - http://www.bohemiancoding.com/sketch -->
    <title>logo_jorcar</title>
    <desc>Created with Sketch.</desc>
    <g id="Page-1" stroke="none" stroke-width="1" fill="none" fill-rule="evenodd">
        <g id="Home_Jorcar" transform="translate(-772.000000, -54.000000)" fill="#FFFFFF">
            <path d="M1146.7523,78.5251 C1148.0683,82.4631 1147.1443,86.5351 1147.4193,91.3521 C1137.6243,90.6251 1128.4203,89.3141 1121.3843,97.9441 L1121.3843,139.6041 C1117.5793,141.3021 1112.7073,141.3791 1108.4003,139.8051 C1108.1213,119.5251 1107.8393,99.1161 1107.5543,78.5231 C1111.7433,76.0681 1115.9463,77.5031 1120.2253,77.3961 C1120.5693,79.6771 1120.8363,81.4401 1121.1923,83.8001 C1129.1903,79.0581 1137.0853,74.6761 1146.7523,78.5251 Z M958.0103,138.4221 C958.0193,139.5001 957.5403,140.5821 957.2313,141.9091 L945.3283,141.9091 C943.6533,140.2061 944.2883,138.2741 944.2773,136.5251 C944.1913,121.8921 944.2043,107.2591 944.1203,92.6261 C944.1013,89.3121 943.7783,86.0011 943.6823,82.6861 C943.6453,81.4011 943.8493,80.1091 943.9343,78.9421 C947.8403,77.7651 952.1303,77.6791 957.1463,78.6541 C957.3693,80.3041 957.6063,82.0581 957.9053,84.2821 C966.2143,79.4381 974.4563,75.1941 984.0813,79.8611 L984.0813,91.9051 C981.9183,91.9051 979.8963,92.2851 978.0753,91.8381 C971.5483,90.2321 965.9763,92.1081 960.8233,95.9721 C959.8973,96.6671 958.9873,97.3861 957.9203,98.2101 C957.8213,99.0951 957.6103,100.0661 957.6203,101.0351 C957.7433,113.4971 957.9173,125.9591 958.0103,138.4221 Z M1027.3003,78.4521 C1030.2123,79.5461 1032.9943,80.9881 1035.9933,82.3431 C1036.0633,87.0881 1036.8623,91.4651 1035.5203,95.7281 C1032.7623,96.4471 1031.2953,94.8921 1029.7193,93.7801 C1024.9553,90.4201 1019.8303,88.5851 1013.8573,88.8341 C1008.3823,89.0631 1004.5743,91.6651 1002.3983,96.3221 C998.2323,105.2361 998.2473,114.3081 1002.4873,123.2821 C1005.8013,130.2981 1012.4753,131.5001 1017.9293,130.5921 C1021.7603,129.9541 1025.2273,128.3631 1028.4313,126.1891 C1029.6673,125.3491 1030.8983,124.5001 1032.1353,123.6621 C1033.3163,122.8621 1034.5253,122.5451 1036.0923,123.6751 L1036.0923,137.0361 C1025.6273,142.7571 1014.8943,145.3101 1003.1823,140.8171 C993.9003,137.2561 988.8663,130.2041 986.6773,120.9691 C984.7323,112.7631 984.8673,104.5191 987.3243,96.3181 C990.2613,86.5171 997.0133,80.7751 1006.3393,77.5221 C1013.4573,75.0401 1020.4403,75.8741 1027.3003,78.4521 Z M914.9963,126.0051 C917.5373,120.9291 918.7263,115.7331 918.4183,109.6701 C918.8293,105.2071 917.8843,100.5021 915.8483,96.0441 C913.7023,91.3441 909.9683,89.0711 904.7623,88.9801 C899.5493,88.8871 895.2923,90.3411 892.6553,95.2151 C888.9943,101.9821 888.7393,109.2141 889.7703,116.5661 C890.2763,120.1781 891.6273,123.5041 893.4213,126.7961 C897.1823,133.6981 911.1173,133.7551 914.9963,126.0051 Z M928.1733,90.6871 C931.4533,96.7441 932.8633,103.4651 932.4453,110.6721 C932.9153,115.6891 931.7193,120.7031 930.2893,125.6711 C926.8843,137.4871 915.0553,143.9921 906.1273,144.2021 C895.1283,144.4611 886.0573,140.8081 880.3713,131.2131 C877.9783,127.1741 876.4893,122.3141 875.7443,117.6431 C874.3943,109.1681 875.2763,100.7091 878.5803,92.6571 C881.5473,85.4241 887.0273,80.6591 894.2263,78.1681 C907.2523,73.6601 921.5743,78.4981 928.1733,90.6871 Z M1080.0753,122.8911 C1079.9063,118.5891 1080.6503,114.4641 1079.4343,109.9281 C1072.4333,110.5341 1065.4813,110.3031 1059.0913,113.6331 C1058.6503,113.8631 1058.2033,114.0911 1057.7973,114.3741 C1054.7983,116.4691 1053.6313,120.0901 1054.6323,124.1411 C1055.4903,127.6141 1057.8463,129.4461 1061.8253,129.9171 C1069.1913,130.7871 1074.9423,127.6951 1080.0753,122.8911 Z M1070.7693,98.9051 C1073.5313,98.5101 1076.3103,98.2231 1079.3583,97.8531 C1079.0073,91.8541 1076.9583,89.4911 1071.8673,88.9931 C1064.8343,88.3061 1057.9063,88.7941 1051.2673,91.5171 C1049.5943,92.2021 1047.9003,93.1311 1045.7303,91.6121 L1045.7303,80.1651 C1046.3993,79.7521 1047.2863,78.9001 1048.3283,78.6121 C1057.7173,76.0221 1067.1933,74.7171 1076.8613,77.0531 C1086.0423,79.2721 1092.0933,85.7211 1092.5703,95.1681 C1093.2003,107.6201 1093.1353,120.1091 1093.3513,132.5811 C1093.3943,135.0521 1093.3573,137.5241 1093.3573,140.1141 C1089.1363,141.8141 1085.1573,140.7641 1081.0533,141.0061 C1080.5573,139.7761 1080.0883,138.6141 1079.5493,137.2771 C1077.9393,138.1191 1076.3503,138.9811 1074.7333,139.7891 C1070.2053,142.0561 1065.5023,143.2541 1060.3373,143.0681 C1050.4703,142.7131 1041.1263,134.0971 1040.4603,124.2241 C1039.5783,111.1391 1045.2823,104.5171 1057.0153,101.0831 C1061.4343,99.7891 1066.1693,99.5631 1070.7693,98.9051 Z M839.3693,78.2141 C834.3143,78.2141 829.6843,78.2581 825.0563,78.2011 C820.6373,78.1461 816.1823,78.5711 811.3023,77.8401 C813.1663,69.7681 814.9013,62.2511 816.5883,54.9411 C820.9433,53.8021 873.6823,53.6641 878.3093,54.7061 C879.1473,58.0421 877.7383,61.2211 877.0363,64.3521 C872.7853,83.2961 868.2683,102.1791 863.9183,121.1011 C862.3203,128.0541 861.0593,135.0841 859.4213,142.0271 C857.6473,149.5491 854.3673,156.5271 849.9973,162.8131 C842.5243,173.5611 831.9093,179.7101 819.1083,182.0541 C808.1013,184.0701 797.0273,184.6511 785.8723,183.2751 C781.2833,182.7091 776.6553,182.4511 772.2083,182.0681 C771.2543,178.1291 773.7093,164.6091 776.8993,155.0641 C778.9363,153.2671 781.1333,154.2211 782.9833,155.1211 C789.2193,158.1591 795.8203,158.4101 802.4983,157.9951 C805.2913,157.8211 808.1143,157.3191 810.8103,156.5631 C817.0293,154.8171 820.8843,150.4861 823.3773,144.6541 C827.1243,135.8911 829.2783,126.6871 831.2903,117.4301 C833.9693,105.1081 836.6783,92.7941 839.3563,80.4721 C839.4573,80.0071 839.3693,79.5011 839.3693,78.2141 Z M1160.96459,77.5344828 C1163.74557,77.5344828 1166,75.2766084 1166,72.4913793 C1166,69.7061502 1163.74557,67.4482759 1160.96459,67.4482759 C1158.18361,67.4482759 1155.92918,69.7061502 1155.92918,72.4913793 C1155.92918,75.2766084 1158.18361,77.5344828 1160.96459,77.5344828 Z M1160.96459,78.6544828 C1157.56467,78.6544828 1154.80918,75.8947849 1154.80918,72.4913793 C1154.80918,69.0879737 1157.56467,66.3282759 1160.96459,66.3282759 C1164.36451,66.3282759 1167.12,69.0879737 1167.12,72.4913793 C1167.12,75.8947849 1164.36451,78.6544828 1160.96459,78.6544828 Z M1158.89118,75.0877896 L1158.89118,69.821501 L1161.12576,69.821501 C1161.6877,69.821501 1162.09599,69.8687989 1162.35066,69.9633962 C1162.60532,70.0579935 1162.80917,70.2262305 1162.96221,70.4681122 C1163.11525,70.7099938 1163.19176,70.986597 1163.19176,71.2979298 C1163.19176,71.693083 1163.07579,72.0193789 1162.84384,72.2768272 C1162.6119,72.5342756 1162.26517,72.6965254 1161.80367,72.7635817 C1162.03323,72.8976944 1162.22273,73.0449765 1162.37218,73.2054327 C1162.52163,73.3658889 1162.72309,73.6508739 1162.97656,74.0603963 L1163.61859,75.0877896 L1162.34886,75.0877896 L1161.58129,73.941851 C1161.30869,73.5323285 1161.12218,73.2742853 1161.02175,73.1677137 C1160.92132,73.0611421 1160.81491,72.9880997 1160.70252,72.9485844 C1160.59013,72.9090691 1160.41199,72.8893117 1160.16809,72.8893117 L1159.95288,72.8893117 L1159.95288,75.0877896 L1158.89118,75.0877896 Z M1159.95288,72.0487172 L1160.73839,72.0487172 C1161.24772,72.0487172 1161.56574,72.0271637 1161.69248,71.9840561 C1161.81921,71.9409485 1161.91845,71.8667087 1161.99018,71.7613345 C1162.06192,71.6559603 1162.09779,71.5242445 1162.09779,71.3661832 C1162.09779,71.188963 1162.05056,71.0458717 1161.95611,70.9369052 C1161.86166,70.8279387 1161.72835,70.7590873 1161.55618,70.7303489 C1161.4701,70.7183746 1161.21185,70.7123875 1160.78143,70.7123875 L1159.95288,70.7123875 L1159.95288,72.0487172 Z" id="logo_jorcar"></path>
        </g>
    </g>
</svg>