<?xml version="1.0" encoding="UTF-8"?>
<svg id="Camada_1" data-name="Camada 1" xmlns="http://www.w3.org/2000/svg" viewBox="0 0 971.6 299">
  <defs>
    <style>
      .cls-1 {
        fill: #1d1d1b;
        stroke-width: 0px;
      }
    </style>
  </defs>
  <g>
    <path class="cls-1" d="M313.28,2.42h-14.16c-3.17,0-10.81,0-10.81,7.64l.37,136.42c0,5.03,2.61,5.22,6.15,5.03h11c6.52,0,7.45-.93,7.45-7.46V2.42Z"/>
    <path class="cls-1" d="M609.96,2.42h-19.2c-3.54,0-6.15,2.98-6.15,5.96l.37,137.16c0,2.98,2.24,5.96,5.78,5.96h13.23c5.78,0,5.96-3.54,5.96-7.27V2.42Z"/>
    <path class="cls-1" d="M880.38,8.39c0-3.91-2.05-5.96-6.15-5.96h-12.49c-4.1,0-6.15,2.05-6.15,5.96l.37,137.16c0,3.91,1.86,5.96,5.78,5.96h12.49c4.1,0,6.15-2.05,6.15-5.96V8.39Z"/>
    <path class="cls-1" d="M423.42,2.42h-14.72v141.64c0,6.52.93,7.46,7.46,7.46h11c3.54,0,6.52,0,6.52-5.4V10.25c0-8.2-6.71-7.83-10.25-7.83Z"/>
    <path class="cls-1" d="M24.79,126.73V9.69c0-3.73-.19-7.27-5.96-7.27H5.96C2.05,2.42,0,4.47,0,8.39l.37,137.16c0,3.91,1.86,5.96,5.59,5.96h18.82v-24.79Z"/>
    <path class="cls-1" d="M86.66,126.73H30.29v24.79h57.68c5.78,0,5.96-3.73,5.96-7.46v-10.06c0-6.71-.56-7.27-7.27-7.27Z"/>
    <path class="cls-1" d="M149.27,12.2c-9.58,26.15-45.65,131.95-45.65,133.35,0,3.54,3.17,5.96,6.15,5.96h12.86c4.47,0,4.85-1.86,6.15-4.85l33.6-96.33-13.11-38.14Z"/>
    <path class="cls-1" d="M179.28,7.27c-1.05-2.58-2.05-4.85-5.78-4.85h-16.4c-2.43,0-3.67.88-4.6,2.27l16.73,48.68,11.19,32.56-27.83,9.21-11.61,33.45,48.41-17.87,12.44,35.95c1.3,2.8,2.05,4.85,5.96,4.85h13.42c3.91,0,5.96-2.42,5.96-5.96,0-1.52-43.11-126.54-47.9-138.28Z"/>
    <path class="cls-1" d="M261.68,126.26c-.69-.29-1.45-.46-2.26-.46h-12.67c-3.54,0-5.96,2.98-5.96,5.96v13.79c0,.47.08.94.2,1.4l20.7-20.7Z"/>
    <path class="cls-1" d="M244.62,151.09c.65.26,1.35.42,2.12.42h12.67c3.54,0,6.15-2.98,6.15-5.96v-13.79c0-.47-.08-.94-.21-1.4l-20.74,20.74Z"/>
    <path class="cls-1" d="M403.19,2.5c-2.86.24-5.22,1.07-6.07,2.71l-47.99,117.41,2.34,5.42c2.05,2.42,2.42,2.98,5.96,2.98h7.27c2.75,0,3.88-.01,5.52-2.68l32.97-75.99V2.5Z"/>
    <path class="cls-1" d="M358.2,85.92L325.4,5.78c-1.01-2.13-3.35-3.06-6.63-3.29v49.92l27.31,63.16,12.11-29.64Z"/>
    <path class="cls-1" d="M493.02,12.2c-9.58,26.15-45.65,131.95-45.65,133.35,0,3.54,3.17,5.96,6.15,5.96h12.86c4.47,0,4.85-1.86,6.15-4.85l33.6-96.33-13.11-38.14Z"/>
    <path class="cls-1" d="M523.03,7.27c-1.05-2.58-2.05-4.85-5.78-4.85h-16.4c-2.43,0-3.67.88-4.6,2.27l16.73,48.68,11.19,32.56-27.83,9.21-11.61,33.45,48.41-17.87,12.44,35.95c1.3,2.8,2.05,4.85,5.96,4.85h13.42c3.91,0,5.96-2.42,5.96-5.96,0-1.52-43.11-126.54-47.9-138.28Z"/>
    <path class="cls-1" d="M657.12,2.42h-41.65v24.79h37.63c7.65,0,9.8,7.08,9.8,13.61,0,9.17-6.1,14.62-11.13,17.48-3.02,1.81-21.81,12.37-36.3,19.82v27.77c9.06-5.16,18-10.32,40.67-23.43,24.17-13.97,32.47-24.49,32.47-44.44,0-18.47-14.72-35.6-31.49-35.6Z"/>
    <path class="cls-1" d="M700.35,143.87c-2.23-3.38-31.16-43.38-40.97-56.93l-19.71,11.61c8.87,12.33,33.16,46.09,34.78,48.31,1.99,2.72,4.16,4.66,8.58,4.66h11.55c5.03,0,8.46-3.57,5.78-7.64Z"/>
    <path class="cls-1" d="M829.5,94.11h-12.49c-3.36,0-5.38,1.79-5.78,5.03-.4,3.24-2.55,10.35-6.52,15.65-7.53,9.65-17.7,14.91-29.63,14.91-18.23,0-33.5-13.71-35.98-31.45l-24.59-32.91v27.83c0,33.36,27.21,60.38,60.57,60.38,25.35,0,49.57-18.08,57.96-41.93,1.3-3.54,2.42-7.83,2.42-11.56,0-2.98-2.42-5.96-5.96-5.96Z"/>
    <path class="cls-1" d="M775.08,0c-31.89,0-58.14,25.05-60.39,56.4l24.05,32.19v-27.83c0-20.13,16.4-36.53,36.34-36.53,11.93,0,22.55,5.4,29.26,14.54,3.17,4.29,4.47,8.76,6.52,14.54,1.31,2.42,2.61,4.1,5.78,4.1h12.49c3.54,0,5.78-2.54,5.78-5.4,0-16.09-19.48-52-59.82-52Z"/>
    <path class="cls-1" d="M963.12,28.55h-22.56c-2.04,0-3.56,2.51-3.56,2.51l-51.13,65.5v41.89l79.12-101.32c4.49-5.84,4.16-8.58-1.87-8.58Z"/>
    <path class="cls-1" d="M970.02,142.01c-2.58-2.8-36.48-39.62-43.37-47.1l-17.14,21.99c5.62,6.05,28.48,30.65,29.38,31.64,1.03,1.13,3.17,2.98,5.4,2.98h20.88c1.3,0,2.42-.37,3.54-1.12,2.79-2.05,4.17-5.27,1.3-8.39Z"/>
  </g>
  <g>
    <path class="cls-1" d="M123.39,229.32c0-2.41-.96-8.48-7.9-8.48-7.61,0-8.29,6.55-8.29,10.22v36.33c0,2.41,1.06,8.77,7.81,8.77,3.76,0,8.38-1.64,8.38-9.44v-2.12h7.32v2.51c0,9.64-4.43,16.1-16,16.1-13.49,0-14.75-10.99-14.75-14.84v-39.9c0-7.61,5.3-14.65,15.13-14.65,8.38,0,15.32,4.05,15.32,14.75v4.34h-7.04v-3.57Z"/>
    <path class="cls-1" d="M138.52,231.83c0-5.01.39-9.83,4.82-13.98,2.7-2.6,6.55-4.05,11.37-4.05s8.67,1.45,11.37,4.05c4.43,4.14,4.82,8.96,4.82,13.98v33.35c0,5.01-.39,9.83-4.82,13.98-2.7,2.6-6.55,4.05-11.37,4.05s-8.67-1.45-11.37-4.05c-4.43-4.14-4.82-8.96-4.82-13.98v-33.35ZM163.68,230.29c0-2.41-.19-4.82-2.51-7.03-1.35-1.35-3.57-2.41-6.46-2.41s-5.11,1.06-6.46,2.41c-2.31,2.22-2.51,4.63-2.51,7.03v36.43c0,2.41.19,4.82,2.51,7.13,1.35,1.25,3.57,2.31,6.46,2.31s5.11-1.06,6.46-2.31c2.31-2.31,2.51-4.72,2.51-7.13v-36.43Z"/>
    <path class="cls-1" d="M183.52,214.77h7.33l14.17,42.21h.29l13.59-42.21h7.32v67.46h-7.23v-45.68h-.29l-12.05,34.31h-3.57l-12.05-34.31h-.29v45.68h-7.23v-67.46Z"/>
    <path class="cls-1" d="M246.55,214.77v51.95c0,5.59,2.8,9.44,8.1,9.44s8.1-3.86,8.1-9.44v-51.95h7.23v50.4c0,14.36-8.38,18.02-15.32,18.02s-15.32-3.66-15.32-18.02v-50.4h7.23Z"/>
    <path class="cls-1" d="M290.3,214.77l19.08,50.21v-50.21h7.23v67.46h-7.23l-19.08-49.25v49.25h-7.23v-67.46h7.23Z"/>
    <path class="cls-1" d="M337.33,214.77v67.46h-7.23v-67.46h7.23Z"/>
    <path class="cls-1" d="M373.85,229.32c0-2.41-.96-8.48-7.9-8.48-7.61,0-8.29,6.55-8.29,10.22v36.33c0,2.41,1.06,8.77,7.81,8.77,3.76,0,8.38-1.64,8.38-9.44v-2.12h7.32v2.51c0,9.64-4.43,16.1-16,16.1-13.49,0-14.75-10.99-14.75-14.84v-39.9c0-7.61,5.3-14.65,15.13-14.65,8.38,0,15.32,4.05,15.32,14.75v4.34h-7.04v-3.57Z"/>
    <path class="cls-1" d="M415.19,282.23l-3.37-15.04h-15.23l-3.28,15.04h-7.04l14.65-67.46h6.55l14.75,67.46h-7.04ZM404.02,229.23l-6.46,31.8h13.2l-6.75-31.8Z"/>
    <path class="cls-1" d="M452.68,229.32c0-2.41-.96-8.48-7.9-8.48-7.61,0-8.29,6.55-8.29,10.22v36.33c0,2.41,1.06,8.77,7.81,8.77,3.76,0,8.38-1.64,8.38-9.44v-2.12h7.32v2.51c0,8.87-3.76,15.13-13.4,16l-.19,2.6c3.85,0,6.17,2.8,6.17,6.07,0,5.69-4.72,7.23-8,7.23-3.08,0-5.4-.96-7.32-3.08l3.47-3.18c.77.77,1.74,1.16,2.89,1.16,1.45,0,2.6-.67,2.6-2.31,0-1.35-1.45-2.12-3.08-2.12-.58,0-1.06.1-1.54.19l.39-6.55c-11.56-.96-12.72-11.08-12.72-14.75v-39.9c0-7.61,5.3-14.65,15.13-14.65,8.38,0,15.32,4.05,15.32,14.75v4.34h-7.04v-3.57Z"/>
    <path class="cls-1" d="M494.02,282.23l-3.37-15.04h-15.23l-3.28,15.04h-7.04l14.65-67.46h6.55l14.75,67.46h-7.04ZM471.47,207.93c0-4.14,2.12-8.96,6.75-8.96.87,0,2.31.1,4.43,1.06l1.83.87c.87.39,1.64.87,2.89.87s2.31-.58,2.7-3.37h4.43c0,6.07-3.37,8.96-6.55,8.96-1.64,0-3.66-.58-4.53-.96l-1.93-.87c-1.06-.48-1.73-.87-2.8-.87-1.16,0-2.41.58-2.7,3.37h-4.53v-.1ZM482.84,229.23l-6.46,31.8h13.2l-6.75-31.8Z"/>
    <path class="cls-1" d="M508.09,231.83c0-5.01.39-9.83,4.82-13.98,2.7-2.6,6.55-4.05,11.37-4.05s8.67,1.45,11.37,4.05c4.43,4.14,4.82,8.96,4.82,13.98v33.35c0,5.01-.39,9.83-4.82,13.98-2.7,2.6-6.55,4.05-11.37,4.05s-8.67-1.45-11.37-4.05c-4.43-4.14-4.82-8.96-4.82-13.98v-33.35ZM533.24,230.29c0-2.41-.19-4.82-2.51-7.03-1.35-1.35-3.57-2.41-6.46-2.41s-5.11,1.06-6.46,2.41c-2.31,2.22-2.51,4.63-2.51,7.03v36.43c0,2.41.19,4.82,2.51,7.13,1.35,1.25,3.57,2.31,6.46,2.31s5.11-1.06,6.46-2.31c2.31-2.31,2.51-4.72,2.51-7.13v-36.43Z"/>
    <path class="cls-1" d="M598.49,229.32c0-2.41-.96-8.48-7.9-8.48-7.61,0-8.29,6.55-8.29,10.22v36.33c0,2.41,1.06,8.77,7.81,8.77,3.76,0,8.38-1.64,8.38-9.44v-2.12h7.32v2.51c0,9.64-4.43,16.1-16,16.1-13.49,0-14.75-10.99-14.75-14.84v-39.9c0-7.61,5.3-14.65,15.13-14.65,8.38,0,15.32,4.05,15.32,14.75v4.34h-7.04v-3.57Z"/>
    <path class="cls-1" d="M629.03,214.77c7.32,0,17.83,1.06,17.83,16v5.3c0,7.42-3.08,12.43-9.25,14.36l10.79,31.8h-7.52l-9.93-30.36h-8.19v30.36h-7.23v-67.46h13.49ZM622.77,245.61h7.13c5.3,0,9.73-3.08,9.73-9.06v-6.36c0-8.38-6.46-9.16-10.12-9.16h-6.75v24.58Z"/>
    <path class="cls-1" d="M666.13,214.77v67.46h-7.23v-67.46h7.23Z"/>
    <path class="cls-1" d="M705.45,282.23l-3.37-15.04h-15.23l-3.28,15.04h-7.04l14.65-67.46h6.55l14.75,67.46h-7.04ZM694.27,229.23l-6.46,31.8h13.2l-6.75-31.8Z"/>
    <path class="cls-1" d="M745.16,214.77v6.65h-12.53v60.81h-7.23v-60.81h-12.43v-6.65h32.19Z"/>
    <path class="cls-1" d="M761.73,214.77v67.46h-7.23v-67.46h7.23Z"/>
    <path class="cls-1" d="M791.51,282.23h-6.46l-14.36-67.46h8.1l9.44,50.02h.29l9.64-50.02h7.61l-14.26,67.46Z"/>
    <path class="cls-1" d="M835.64,282.23l-3.37-15.04h-15.23l-3.28,15.04h-7.04l14.65-67.46h6.55l14.75,67.46h-7.04ZM824.46,229.23l-6.46,31.8h13.2l-6.75-31.8Z"/>
  </g>
</svg>